<svg height="504pt" viewBox="0 -10 504 504" width="504pt" xmlns="http://www.w3.org/2000/svg"><path d="m351.921875 131.375-136-72h-24l-124.152344-59c-.050781-.03125-.097656-.054688-.144531-.078125l-.058594-.015625-.007812.007812c-.4375-.167968-.925782-.289062-1.429688-.289062-2.207031 0-4 1.792969-4 4 0 1.207031.558594 2.257812 1.414063 2.992188l-.015625.007812c13.367187 13.105469 28.242187 31.679688 32.394531 52.375h-64c31.199219 39.050781-21.363281 62.808594-23.921875 64 31.921875 24.082031 23.921875 56 23.921875 56h.078125c39.921875 16.082031 31.921875 48 31.921875 48 22.078125 0 40 21.519531 40 48h16c40 88-14.800781 173.050781-51.441406 208h202.800781l1.4375-7.4375c.730469-2.875 1.359375-5.761719 1.921875-8.5625 3.4375-16.640625 5.199219-32.640625 5.757813-48 .488281-16.871094-.628907-32.949219-2.871094-48-2.558594-17.359375-6.71875-33.4375-11.679688-48-6.238281-18.3125-13.839844-34.390625-21.359375-47.917969v-.082031c-14.320312-29.359375 3.441407-53.03125 3.441407-53.03125-9.441407-12.40625-16-18.96875-16-18.96875v-20.949219l112 20.949219 16-16 16-64zm0 0" fill="#ed5565"/><path d="m309.839844 371.375c-2.238282-17.117188-5.917969-33.117188-10.398438-48-5.449218-17.757812-12-33.832031-18.960937-48-11.199219-22.871094-23.28125-40.800781-32.558594-53.03125 0 0-17.761719 23.671875-3.441406 53.03125v.082031c7.511719 13.527344 15.121093 29.605469 21.359375 47.917969 4.960937 14.5625 9.121094 30.640625 11.679687 48 2.242188 15.050781 3.359375 31.128906 2.871094 48-.550781 15.359375-2.320313 31.359375-5.757813 48-.5625 2.808594-1.191406 5.6875-1.921874 8.5625l-1.4375 7.4375h32.558593c1.28125-5.359375 2.398438-10.71875 3.359375-16 3.121094-16.640625 4.71875-32.640625 5.121094-48 .566406-16.800781-.390625-32.800781-2.472656-48zm0 0" fill="#ffce54"/><g fill="#da4453"><path d="m351.921875 131.375-1.761719-.933594-14.238281 56.933594-12.21875 12.210938 20.21875 3.789062 16-16 16-64zm0 0"/><path d="m112 67.375h-80c-4.425781 0-8-3.574219-8-8 0-4.421875 3.574219-8 8-8h80c4.425781 0 8 3.578125 8 8 0 4.425781-3.574219 8-8 8zm0 0"/><path d="m72 131.375h-64c-4.425781 0-8-3.574219-8-8 0-4.421875 3.574219-8 8-8h64c4.425781 0 8 3.578125 8 8 0 4.425781-3.574219 8-8 8zm0 0"/><path d="m88 187.375h-56c-4.425781 0-8-3.574219-8-8 0-4.421875 3.574219-8 8-8h56c4.425781 0 8 3.578125 8 8 0 4.425781-3.574219 8-8 8zm0 0"/><path d="m96 235.375h-32c-4.425781 0-8-3.574219-8-8 0-4.421875 3.574219-8 8-8h32c4.425781 0 8 3.578125 8 8 0 4.425781-3.574219 8-8 8zm0 0"/><path d="m128 283.375h-24c-4.425781 0-8-3.574219-8-8 0-4.421875 3.574219-8 8-8h24c4.425781 0 8 3.578125 8 8 0 4.425781-3.574219 8-8 8zm0 0"/></g><path d="m224.238281 115.375c-4.421875 0-8.039062-3.574219-8.039062-8 0-4.421875 3.535156-8 7.953125-8h.085937c4.417969 0 8 3.578125 8 8 0 4.425781-3.582031 8-8 8zm0 0" fill="#434a54"/><path d="m276.113281 459.375c-.472656 2.65625-.914062 5.304688-1.472656 8-.519531 2.617188-1.128906 5.3125-1.800781 8h32.679687c.558594-2.671875 1.191407-5.359375 1.679688-8 .503906-2.695312.90625-5.34375 1.335937-8zm0 0" fill="#f6bb42"/><path d="m280.449219 411.375c0 2.65625.03125 5.296875-.050781 8-.09375 2.640625-.269532 5.320312-.445313 8h32c.144531-2.679688.292969-5.359375.367187-8 .09375-2.695312.078126-5.34375.09375-8zm0 0" fill="#f6bb42"/><path d="m277.519531 371.375c.390625 2.625.703125 5.3125 1.023438 8h32.226562c-.289062-2.679688-.570312-5.367188-.929687-8-.351563-2.710938-.808594-5.34375-1.222656-8h-32.480469c.480469 2.65625.992187 5.28125 1.382812 8zm0 0" fill="#f6bb42"/><path d="m265.839844 323.375c.878906 2.601562 1.710937 5.304688 2.535156 8h33.3125c-.734375-2.6875-1.464844-5.382812-2.246094-8-.832031-2.734375-1.753906-5.351562-2.632812-8h-33.921875c.992187 2.648438 2.015625 5.25 2.953125 8zm0 0" fill="#f6bb42"/><path d="m244.488281 275.375v.082031c1.398438 2.519531 2.808594 5.222657 4.199219 7.917969h35.535156c-1.230468-2.703125-2.480468-5.421875-3.742187-8-1.34375-2.742188-2.695313-5.40625-4.066407-8h-35.054687c.816406 2.617188 1.800781 5.273438 3.128906 8zm0 0" fill="#f6bb42"/><path d="m504 175.375c0-15.4375-12.558594-28-28-28-4.425781 0-8 3.578125-8 8 0 4.425781 3.574219 8 8 8 6.617188 0 12 5.386719 12 12 0 6.449219-5.121094 11.679688-11.503906 11.953125l-83-15.816406c-4.398438-.839844-8.527344 2.023437-9.359375 6.359375-.832031 4.34375 2.023437 8.527344 6.359375 9.359375l84 16c.503906.097656 1.007812.144531 1.496094.144531h.007812.007812.007813c15.433594-.015625 27.984375-12.566406 27.984375-28zm0 0" fill="#ffce54"/><path d="m433.566406 211.527344-40-8c-4.320312-.863282-8.550781 1.9375-9.414062 6.273437-.863282 4.335938 1.945312 8.542969 6.273437 9.414063l40 8c.527344.113281 1.054688.160156 1.574219.160156 3.734375 0 7.078125-2.621094 7.832031-6.429688.878907-4.335937-1.9375-8.546874-6.265625-9.417968zm0 0" fill="#ffce54"/><path d="m239.992188 115.375c-1.199219 0-2.425782-.261719-3.566407-.839844l-32-16c-3.953125-1.976562-5.554687-6.78125-3.578125-10.734375 1.984375-3.953125 6.792969-5.5625 10.738282-3.578125l32 16c3.949218 1.976563 5.550781 6.785156 3.574218 10.738282-1.40625 2.800781-4.230468 4.414062-7.167968 4.414062zm0 0" fill="#da4453"/></svg>