<?xml version="1.0" encoding="iso-8859-1"?>
<!-- Generator: Adobe Illustrator 19.0.0, SVG Export Plug-In . SVG Version: 6.00 Build 0)  -->
<svg version="1.1" id="Capa_1" xmlns="http://www.w3.org/2000/svg" xmlns:xlink="http://www.w3.org/1999/xlink" x="0px" y="0px"
	 viewBox="0 0 511.531 511.531" style="enable-background:new 0 0 511.531 511.531;" xml:space="preserve">
<g transform="matrix(1.25 0 0 -1.25 0 45)">
	<g>
		<g>
			<path style="fill:#3E721D;" d="M399.588-112.749c0,11.378,8.772,26.476,8.772,29.98c0,7.464-17.67,4.801-18.5,11.913
				c-2.378,20.412,21.458,37.751-19.866,37.683c-15.383-0.023-3.118,20.116-3.118,31.004s-29.537,1.65-40.414,1.65
				c-10.889,0-10.889,32.654-21.766,32.654c-32.654,0-43.543-32.654-54.42-32.654c-10.889,0-19.843,41.188-32.654,32.654
				c-32.654-21.766-43.531-87.074-43.531-87.074s54.42,43.531,119.717,32.654c60.814-10.138,54.5-123.119,64.182-192.159
				l-78.052-156.08h38.229c3.914,17.067,22.062,6.019,27.022,19.194c4.335,11.56-7.623,22.369-1.069,33.781
				c6.554,11.412,11.127,8.59,23.825,15.644c13.46,7.475,0,25.02,0,35.908c0,10.877,26.305,17.909,26.305,28.797
				c0,7.168-12.151,14.7-9.227,26.817c2.924,12.106,18.045,13.483,19.9,24.849c1.559,9.626-10.479,16.555-9.057,27.216
				c1.422,10.672,13.358,15.69,13.358,23.859C409.225-126.277,399.588-123.057,399.588-112.749"/>
			<path style="fill:#77B255;" d="M391.828-114.035c0,45.943-32.654,103.367-108.84,103.367S86.551-124.718,54.431-125.526
				C32.654-103.374,0-126.152,0-148.498c0-34.452,61.144-52.452,64.239-55.728c12.379-13.084,44.601-91.967,99.032-22.141
				c9.125,11.73,14.802,4.801,39.629-6.167c82.341-43.873-20.844-137.978-20.844-137.978h108.84
				c54.409,54.42,100.932,157.503,100.932,250.277c0,0-0.182-0.068-0.228-0.091C391.657-118.233,391.828-116.128,391.828-114.035"/>
			<path style="fill:#292F33;" d="M272.1-98.481c0-12.015-9.739-21.766-21.766-21.766c-12.026,0-21.766,9.751-21.766,21.766
				c0,12.026,9.739,21.766,21.766,21.766C262.36-76.716,272.1-86.455,272.1-98.481"/>
			<path style="fill:#3E721D;" d="M54.42-158.34c0-9.023-7.316-5.45-16.327-5.45c-9.023,0-16.327-3.573-16.327,5.45
				c0,9.011,7.305,16.327,16.327,16.327C47.104-142.013,54.42-149.329,54.42-158.34"/>
			<g>
				<path style="fill:#FFFFFF;" d="M206.848-174.621c0-12.038-7.316-10.877-16.338-10.877c-9.011,0-16.316-1.161-16.316,10.877
					c0,12.015,7.305,43.531,16.316,43.531C199.532-131.09,206.848-162.606,206.848-174.621"/>
				<path style="fill:#FFFFFF;" d="M163.26-185.499c0-12.038-7.316-10.889-16.327-10.889c-9.023,0-16.327-1.149-16.327,10.889
					c0,12.015,7.305,43.531,16.327,43.531C155.944-141.967,163.26-173.484,163.26-185.499"/>
			</g>
			<g>
				<path style="fill:#3E721D;" d="M205.255-174.769c-57.754-8.26-115.962-22.835-141.016-29.468
					c3.129-3.3,7.521-10.809,13.221-19.046c27.466,7.1,79.36,19.615,130.867,26.954c5.962,0.853,10.092,6.383,9.25,12.334
					C216.724-178.046,211.172-173.905,205.255-174.769"/>
				<path style="fill:#3E721D;" d="M211.502-104.386c-2.935,0-5.86,1.115-8.078,3.356c-4.415,4.449-4.415,11.617,0.023,16.043
					c1.468,1.479,36.659,35.988,95.118,35.988c6.292,0,11.378-5.097,11.378-11.378c0-6.281-5.086-11.378-11.378-11.378
					c-48.708,0-78.757-29.059-79.064-29.355C217.293-103.294,214.391-104.386,211.502-104.386"/>
			</g>
		</g>
	</g>
</g>
<g>
</g>
<g>
</g>
<g>
</g>
<g>
</g>
<g>
</g>
<g>
</g>
<g>
</g>
<g>
</g>
<g>
</g>
<g>
</g>
<g>
</g>
<g>
</g>
<g>
</g>
<g>
</g>
<g>
</g>
</svg>
