<?xml version="1.0" encoding="iso-8859-1"?>
<!-- Generator: Adobe Illustrator 19.0.0, SVG Export Plug-In . SVG Version: 6.00 Build 0)  -->
<svg version="1.1" id="Capa_1" xmlns="http://www.w3.org/2000/svg" xmlns:xlink="http://www.w3.org/1999/xlink" x="0px" y="0px"
	 viewBox="0 0 511.999 511.999" style="enable-background:new 0 0 511.999 511.999;" xml:space="preserve">
<path style="fill:#FFF2E9;" d="M503.577,42.301v65.01c0,295.574-184.916,333.716-184.916,333.716s-184.916-38.142-184.916-333.716
	v-65.01l0,0C252.709-3.817,384.613-3.817,503.577,42.301L503.577,42.301z"/>
<path style="fill:#EF6E4B;" d="M318.688,390.954c-13.365-5.225-37.896-17.521-62.553-43.758
	c-21.178-22.535-38.149-50.924-50.443-84.377c-16.018-43.59-24.141-95.91-24.141-155.508V76.238
	c44.376-13.76,90.361-20.719,137.11-20.719s92.733,6.958,137.109,20.718v31.074c0,61.537-8.652,115.268-25.715,159.698
	c-12.937,33.688-30.712,62.047-52.833,84.287C353.909,374.737,331.13,386.054,318.688,390.954z"/>
<path style="fill:#DB5B3E;" d="M426.62,68.252v39.058c0,61.537-6.812,115.268-20.248,159.698
	c-10.187,33.688-24.183,62.047-41.6,84.287c-18.355,23.438-36.29,34.755-46.086,39.656c0.001,0,0.002,0.001,0.003,0.001
	c12.441-4.9,35.221-16.217,58.533-39.657c22.12-22.24,39.896-50.599,52.833-84.287c17.063-44.431,25.715-98.161,25.715-159.698
	V76.237C446.127,73.248,436.405,70.599,426.62,68.252z"/>
<polyline style="fill:#E2D0C5;" points="81.877,374.31 307.526,133.519 383.959,128.837 379.277,205.271 138.486,430.919 "/>
<polyline style="fill:#75706B;" points="105.495,438.759 39.884,504.37 8.422,472.909 74.033,407.296 "/>
<polyline style="fill:#605B58;" points="105.495,438.759 39.884,504.37 24.661,489.148 90.273,423.537 "/>
<polygon style="fill:#FFF2E9;" points="383.967,128.838 110.185,402.61 81.877,374.313 307.526,133.517 "/>
<path style="fill:#EF6E4B;" d="M128.266,483.848c-14.616-47.51-51.808-84.702-99.318-99.318c2.987-9.712,5.976-19.424,8.963-29.136
	c57.16,17.585,101.905,62.33,119.49,119.49C147.69,477.873,137.978,480.86,128.266,483.848z"/>
<path d="M147.33,433.088l237.164-222.25c1.421-1.331,2.279-3.156,2.397-5.1l4.682-76.433c0.133-2.182-0.674-4.316-2.22-5.861
	s-3.678-2.349-5.861-2.22l-76.433,4.682c-1.944,0.119-3.769,0.976-5.1,2.397L139.23,301.952c-2.882,3.074-2.724,7.902,0.35,10.783
	c3.074,2.881,7.901,2.724,10.783-0.35l160.656-171.436l64.798-3.969l-3.969,64.798L138.968,420.013
	c-4.826-6.894-10.105-13.441-15.79-19.607l205.444-205.444c2.979-2.979,2.979-7.81,0-10.788c-2.979-2.979-7.81-2.979-10.788,0
	L112.39,389.618c-6.166-5.684-12.712-10.963-19.606-15.789l39.79-42.459c2.881-3.074,2.724-7.902-0.35-10.783
	s-7.902-2.725-10.783,0.35l-41.731,44.53c-12.341-7.201-25.583-13.066-39.555-17.363c-1.934-0.594-4.025-0.398-5.813,0.549
	c-1.788,0.947-3.127,2.565-3.722,4.499l-8.963,29.136c-1.239,4.027,1.021,8.296,5.048,9.535c12.696,3.906,24.609,9.501,35.484,16.53
	L3.028,467.514c-2.979,2.979-2.979,7.81,0,10.788l31.462,31.462c1.43,1.431,3.371,2.235,5.394,2.235s3.964-0.804,5.394-2.235
	l59.163-59.163c7.031,10.877,12.627,22.791,16.534,35.489c0.595,1.934,1.934,3.553,3.722,4.499c1.11,0.588,2.336,0.887,3.569,0.887
	c0.754,0,1.509-0.112,2.244-0.338l29.135-8.963c1.934-0.595,3.552-1.934,4.499-3.722c0.947-1.788,1.144-3.879,0.549-5.813
	C160.394,458.671,154.53,445.428,147.33,433.088z M39.884,493.582L19.21,472.908l55.467-55.467
	c7.583,6.163,14.51,13.09,20.674,20.673L39.884,493.582z M133.139,474.368c-15.929-44.102-50.606-78.781-94.709-94.71l4.482-14.568
	c48.925,17.435,87.361,55.871,104.796,104.796L133.139,474.368z"/>
<path d="M511.206,42.301c0-3.149-1.935-5.975-4.871-7.113c-121.022-46.917-254.324-46.918-375.347,0
	c-2.937,1.138-4.871,3.963-4.871,7.113v65.01c0,58.598,7.287,111.532,21.658,157.328c1.261,4.02,5.541,6.259,9.562,4.994
	c4.02-1.261,6.256-5.543,4.994-9.562c-13.907-44.316-20.958-95.713-20.958-152.76V47.555c114.541-43.061,240.032-43.061,354.574,0
	v59.757c0,66.165-9.461,124.509-28.121,173.41c-14.839,38.887-35.501,71.925-61.415,98.2c-23.03,23.35-46.063,36.955-61.329,44.257
	c-13.036,6.234-22.794,9.068-26.421,10.004c-3.677-0.95-13.6-3.833-26.836-10.202c-15.474-7.447-38.795-21.329-62.012-45.177
	c-2.94-3.019-7.769-3.083-10.788-0.144c-3.019,2.94-3.083,7.769-0.144,10.788c47.921,49.222,96.206,59.633,98.239,60.053
	c0.509,0.105,1.024,0.158,1.541,0.158s1.032-0.053,1.541-0.158c1.979-0.408,49.022-10.546,96.326-58.109
	c27.594-27.745,49.557-62.569,65.278-103.504c19.508-50.799,29.4-111.216,29.4-179.574L511.206,42.301z"/>
<path d="M422.933,264.275c-12.554,32.691-29.753,60.16-51.12,81.643c-20.887,21.002-41.326,31.8-53.133,36.799
	c-11.486-4.836-31.344-15.248-51.834-35.466c-3-2.959-7.829-2.927-10.788,0.072c-2.959,2.999-2.926,7.829,0.072,10.788
	c24.207,23.884,47.845,35.281,59.781,39.946c0.893,0.35,1.835,0.524,2.778,0.524c0.949,0,1.897-0.177,2.795-0.53
	c12.277-4.835,36.546-16.639,61.147-41.376c22.873-22.998,41.225-52.247,54.546-86.932c17.4-45.307,26.223-99.958,26.223-162.433
	V76.237c0-3.343-2.177-6.296-5.37-7.287c-24.54-7.609-49.862-13.231-75.26-16.708c-4.173-0.572-8.021,2.35-8.593,6.523
	c-0.572,4.174,2.35,8.021,6.523,8.593c22.723,3.112,45.382,7.996,67.442,14.536v25.415
	C448.141,167.91,439.66,220.719,422.933,264.275z"/>
<path d="M318.661,63.148c12.914,0,25.952,0.549,38.751,1.633c4.21,0.363,7.89-2.76,8.245-6.957c0.356-4.198-2.76-7.89-6.957-8.245
	c-13.225-1.12-26.697-1.687-40.038-1.687c-47.407,0-94.299,7.086-139.369,21.061c-3.193,0.99-5.37,3.944-5.37,7.287v31.074
	c0,42.761,4.173,82.179,12.403,117.16c0.827,3.514,3.96,5.883,7.419,5.883c0.579,0,1.166-0.066,1.754-0.204
	c4.101-0.965,6.644-5.072,5.679-9.174c-7.961-33.837-11.999-72.079-11.999-113.665V81.896
	C231.137,69.453,274.666,63.148,318.661,63.148z"/>
<g>
</g>
<g>
</g>
<g>
</g>
<g>
</g>
<g>
</g>
<g>
</g>
<g>
</g>
<g>
</g>
<g>
</g>
<g>
</g>
<g>
</g>
<g>
</g>
<g>
</g>
<g>
</g>
<g>
</g>
</svg>
