<?xml version="1.0" encoding="iso-8859-1"?>
<!-- Generator: Adobe Illustrator 19.0.0, SVG Export Plug-In . SVG Version: 6.00 Build 0)  -->
<svg version="1.1" id="Capa_1" xmlns="http://www.w3.org/2000/svg" xmlns:xlink="http://www.w3.org/1999/xlink" x="0px" y="0px"
	 viewBox="0 0 512 512" style="enable-background:new 0 0 512 512;" xml:space="preserve">
<circle style="fill:#C6C5CA;" cx="256.003" cy="256.003" r="248.493"/>
<g>
	<circle style="fill:#898890;" cx="295.042" cy="256.003" r="197.995"/>
	<path style="fill:#898890;" d="M59.005,256c0-128.543,97.604-234.288,222.744-247.171C273.285,7.958,264.695,7.507,256,7.507
		C118.761,7.507,7.507,118.761,7.507,256S118.761,504.493,256,504.493c8.695,0,17.285-0.451,25.749-1.322
		C156.611,490.288,59.005,384.544,59.005,256z"/>
</g>
<circle style="fill:#FFB655;" cx="256.003" cy="256.003" r="197.995"/>
<g>
	<circle style="fill:#FF7956;" cx="290.172" cy="256.003" r="89.498"/>
	<path style="fill:#FF7956;" d="M115.826,256c0-99.528,73.44-181.892,169.084-195.887c-9.438-1.381-19.088-2.108-28.91-2.108
		C146.651,58.006,58.006,146.651,58.006,256S146.651,453.995,256,453.995c9.822,0,19.472-0.727,28.91-2.108
		C189.266,437.893,115.826,355.528,115.826,256z"/>
</g>
<circle style="fill:#C6C5CA;" cx="256.003" cy="256.003" r="89.498"/>
<g>
	<circle style="fill:#898890;" cx="281.752" cy="256.003" r="43.999"/>
	<path style="fill:#898890;" d="M196.669,256c0-44.287,32.169-81.055,74.414-88.226c-4.904-0.832-9.942-1.272-15.084-1.272
		c-49.429,0-89.498,40.07-89.498,89.498s40.069,89.498,89.498,89.498c5.141,0,10.179-0.44,15.084-1.272
		C228.839,337.055,196.669,300.287,196.669,256z"/>
</g>
<circle style="fill:#D8D7DA;" cx="256.003" cy="256.003" r="43.999"/>
<path style="fill:#C6C5CA;" d="M237.751,256c0-19.819,13.107-36.574,31.124-42.08c-4.073-1.245-8.395-1.919-12.875-1.919
	c-24.3,0-43.999,19.698-43.999,43.999S231.7,299.999,256,299.999c4.48,0,8.802-0.674,12.875-1.919
	C250.857,292.574,237.751,275.82,237.751,256z"/>
<g>
	<path style="fill:#FFFFFF;" d="M256,225.834v15c8.363,0,15.167,6.804,15.167,15.167c0,5.346-2.865,10.356-7.478,13.077l7.621,12.92
		c9.164-5.405,14.856-15.367,14.856-25.996C286.166,239.368,272.634,225.834,256,225.834z"/>
	<path style="fill:#FFFFFF;" d="M307.749,31.34c-5.012-1.15-10.132-2.144-15.219-2.954L290.173,43.2
		c4.754,0.756,9.538,1.685,14.221,2.759L307.749,31.34z"/>
	<path style="fill:#FFFFFF;" d="M342.251,42.19l-5.615,13.908c54.866,22.153,98.67,66.465,120.183,121.572l13.973-5.455
		C447.783,113.276,400.932,65.883,342.251,42.19z"/>
	<path style="fill:#FFFFFF;" d="M332.574,38.534c-4.851-1.708-9.826-3.272-14.791-4.65l-4.012,14.453
		c4.639,1.288,9.289,2.75,13.82,4.346L332.574,38.534z"/>
</g>
<g>
	<rect x="142.836" y="143.006" style="fill:#1D1D1F;" width="15" height="15"/>
	<rect x="142.836" y="168.006" style="fill:#1D1D1F;" width="15" height="15"/>
	<rect x="142.836" y="118.007" style="fill:#1D1D1F;" width="15" height="15"/>
	<rect x="283.852" y="367.75" style="fill:#1D1D1F;" width="15" height="15"/>
	<rect x="283.852" y="392.749" style="fill:#1D1D1F;" width="15" height="15"/>
	<rect x="283.852" y="417.749" style="fill:#1D1D1F;" width="15" height="15"/>
	<path style="fill:#1D1D1F;" d="M511.738,244.589c-3.048-68.311-32.515-131.345-82.974-177.492S312.902-2.794,244.588,0.262
		C176.278,3.31,113.244,32.777,67.096,83.236C20.95,133.694-2.787,199.103,0.262,267.412
		c3.048,68.311,32.516,131.345,82.974,177.492C130.812,488.415,191.669,512,255.727,512c3.882,0,7.783-0.087,11.686-0.262
		c68.311-3.048,131.345-32.515,177.492-82.974C491.052,378.308,514.787,312.899,511.738,244.589z M266.744,496.755
		c-3.646,0.162-7.26,0.243-10.875,0.242C127.892,496.988,21.007,395.85,15.246,266.744C9.323,133.993,112.505,21.171,245.257,15.247
		c3.646-0.162,7.26-0.242,10.874-0.242c127.978,0,234.863,101.146,240.623,230.253C502.678,378.009,399.495,490.83,266.744,496.755z
		"/>
	<path style="fill:#1D1D1F;" d="M256,50.506C142.69,50.506,50.506,142.69,50.506,256S142.69,461.495,256,461.495
		S461.494,369.31,461.494,256S369.311,50.506,256,50.506z M314.499,336.553v100.741c-16.17,5.23-33.276,8.351-50.999,9.04v-80.837
		h-15v80.837c-4.882-0.19-9.718-0.564-14.5-1.117v-41.638h-15v39.297c-7.326-1.448-14.5-3.318-21.499-5.583V336.445h-15v95.294
		c-8.676-3.642-17.029-7.905-24.999-12.74v-63.002h-15v52.901c-3.776-2.81-7.446-5.753-11-8.828V111.931
		c15.116-13.08,32.305-23.821,50.999-31.669v95.294h15V74.707c5.244-1.696,10.583-3.179,16.014-4.42v65.274h15V67.496
		c6.561-0.952,13.229-1.566,19.985-1.829v80.837h15V65.667c17.723,0.69,34.829,3.81,50.999,9.04v100.849h15V80.262
		c8.316,3.491,16.33,7.559,23.999,12.148v90.594h15v-80.63c4.127,3.03,8.135,6.213,12,9.558V400.07
		c-15.116,13.08-32.305,23.821-50.999,31.669v-95.186H314.499z M65.505,256c0-29.418,6.707-57.299,18.666-82.199v53.2h15v-79.002
		c5.258-7.611,11.053-14.821,17.333-21.576v259.156C84.881,351.558,65.505,306.003,65.505,256z M395.496,385.579V126.423
		c31.624,34.021,50.999,79.576,50.999,129.577S427.12,351.558,395.496,385.579z"/>
	<path style="fill:#1D1D1F;" d="M256,159.003c-53.485,0-96.997,43.513-96.997,96.997s43.513,96.997,96.997,96.997
		s96.997-43.513,96.997-96.997S309.486,159.003,256,159.003z M256,337.998c-45.214,0-81.998-36.784-81.998-81.998
		s36.784-81.998,81.998-81.998s81.998,36.784,81.998,81.998S301.214,337.998,256,337.998z"/>
	<path style="fill:#1D1D1F;" d="M206.42,225.13l-12.724-7.943c-2.715,4.349-4.976,8.992-6.718,13.801l14.103,5.111
		C202.466,232.278,204.263,228.587,206.42,225.13z"/>
	<path style="fill:#1D1D1F;" d="M237.852,200.476l-4.663-14.256c-4.864,1.591-9.575,3.701-14.004,6.273l7.533,12.971
		C230.24,203.419,233.986,201.741,237.852,200.476z"/>
	<path style="fill:#1D1D1F;" d="M219.977,210.034l-9.261-11.801c-4.021,3.156-7.726,6.745-11.011,10.668l11.5,9.631
		C213.823,215.407,216.774,212.547,219.977,210.034z"/>
	<path style="fill:#1D1D1F;" d="M283.359,187.874c-4.748-1.908-9.717-3.319-14.768-4.193l-2.559,14.779
		c4.014,0.695,7.961,1.816,11.732,3.332L283.359,187.874z"/>
	<path style="fill:#1D1D1F;" d="M257.929,197.635l0.486-14.992c-5.094-0.167-10.278,0.2-15.289,1.088l2.615,14.77
		C249.731,197.795,253.868,197.505,257.929,197.635z"/>
	<path style="fill:#1D1D1F;" d="M313.815,247.707l14.852-2.107c-0.72-5.073-1.979-10.082-3.742-14.886l-14.082,5.168
		C312.242,239.699,313.242,243.677,313.815,247.707z"/>
	<path style="fill:#1D1D1F;" d="M304.994,201.35c-3.813-3.421-7.992-6.448-12.42-8.997l-7.483,13
		c3.523,2.028,6.851,4.438,9.888,7.163L304.994,201.35z"/>
	<path style="fill:#1D1D1F;" d="M307.513,228.465l13.221-7.088c-2.414-4.503-5.313-8.771-8.614-12.684l-11.465,9.672
		C303.284,221.483,305.592,224.88,307.513,228.465z"/>
	<path style="fill:#1D1D1F;" d="M291.963,302.015l9.246,11.811c4.027-3.152,7.736-6.737,11.024-10.653l-11.488-9.645
		C298.126,296.648,295.171,299.503,291.963,302.015z"/>
	<path style="fill:#1D1D1F;" d="M305.54,286.935l12.713,7.959c2.719-4.342,4.985-8.981,6.736-13.789l-14.096-5.133
		C309.503,279.794,307.701,283.482,305.54,286.935z"/>
	<path style="fill:#1D1D1F;" d="M274.077,311.549l4.643,14.264c4.864-1.583,9.579-3.688,14.014-6.256l-7.518-12.98
		C281.69,308.619,277.943,310.291,274.077,311.549z"/>
	<path style="fill:#1D1D1F;" d="M198.851,243.931l-14.68-3.084c-1.04,4.952-1.567,10.051-1.567,15.154v0.086l15-0.086
		C197.604,251.931,198.023,247.87,198.851,243.931z"/>
	<path style="fill:#1D1D1F;" d="M314.398,255.82v0.181c0,4.094-0.425,8.181-1.263,12.146l14.676,3.102
		c1.053-4.984,1.587-10.114,1.587-15.248v-0.181H314.398z"/>
	<path style="fill:#1D1D1F;" d="M253.997,314.364l-0.508,14.992c0.834,0.028,1.671,0.042,2.511,0.042
		c4.288,0,8.588-0.374,12.779-1.11l-2.596-14.773C262.192,314.214,258.054,314.5,253.997,314.364z"/>
	<path style="fill:#1D1D1F;" d="M198.176,264.21l-14.854,2.088c0.713,5.076,1.965,10.086,3.721,14.891l14.089-5.148
		C199.737,272.225,198.743,268.245,198.176,264.21z"/>
	<path style="fill:#1D1D1F;" d="M228.552,324.089c4.747,1.915,9.713,3.333,14.762,4.214l2.578-14.777
		c-4.012-0.699-7.958-1.826-11.728-3.347L228.552,324.089z"/>
	<path style="fill:#1D1D1F;" d="M204.452,283.471l-13.23,7.066c2.406,4.506,5.299,8.777,8.598,12.698l11.478-9.658
		C208.67,290.456,206.368,287.055,204.452,283.471z"/>
	<path style="fill:#1D1D1F;" d="M206.935,310.588c3.811,3.426,7.985,6.458,12.408,9.013l7.502-12.99
		c-3.521-2.033-6.845-4.447-9.881-7.177L206.935,310.588z"/>
	<path style="fill:#1D1D1F;" d="M256,204.502c-28.396,0-51.499,23.102-51.499,51.499s23.102,51.499,51.499,51.499
		s51.499-23.102,51.499-51.499C307.499,227.604,284.397,204.502,256,204.502z M256,292.499c-20.125,0-36.499-16.374-36.499-36.499
		s16.374-36.499,36.499-36.499s36.499,16.374,36.499,36.499S276.126,292.499,256,292.499z"/>
	<path style="fill:#1D1D1F;" d="M52.244,326.334l-14.18,4.893c15.1,43.751,42.764,81.601,80.002,109.457l8.985-12.012
		C92.227,402.622,66.358,367.235,52.244,326.334z"/>
	<rect x="84.168" y="253.143" style="fill:#1D1D1F;" width="15" height="15"/>
	<rect x="84.168" y="278.143" style="fill:#1D1D1F;" width="15" height="15"/>
</g>
<g>
	<rect x="407.499" y="208.004" style="fill:#FFFFFF;" width="15" height="15"/>
	<rect x="407.499" y="233.004" style="fill:#FFFFFF;" width="15" height="55.328"/>
	<rect x="407.499" y="183.005" style="fill:#FFFFFF;" width="15" height="15"/>
</g>
<g>
</g>
<g>
</g>
<g>
</g>
<g>
</g>
<g>
</g>
<g>
</g>
<g>
</g>
<g>
</g>
<g>
</g>
<g>
</g>
<g>
</g>
<g>
</g>
<g>
</g>
<g>
</g>
<g>
</g>
</svg>
