<?xml version="1.0" standalone="no"?>
<!DOCTYPE svg PUBLIC "-//W3C//DTD SVG 20010904//EN"
 "http://www.w3.org/TR/2001/REC-SVG-20010904/DTD/svg10.dtd">
<svg version="1.0" xmlns="http://www.w3.org/2000/svg"
 width="216.000000pt" height="267.000000pt" viewBox="0 0 216.000000 267.000000"
 preserveAspectRatio="xMidYMid meet">
<metadata>
Created by potrace 1.15, written by Peter Selinger 2001-2017
</metadata>
<g transform="translate(0.000000,267.000000) scale(0.100000,-0.100000)"
fill="#000000" stroke="none">
<path d="M1218 2570 c-115 -14 -210 -54 -265 -112 -120 -125 -60 -331 96 -330
79 1 134 39 152 104 14 53 -1 100 -50 154 -23 24 -41 50 -41 58 0 44 83 72
165 57 128 -24 195 -92 224 -229 14 -67 14 -349 1 -428 -28 -157 -87 -224
-199 -224 -119 0 -218 106 -252 270 -13 62 -11 65 -54 -75 -41 -136 -99 -248
-168 -322 -33 -34 -65 -63 -73 -63 -11 0 -13 99 -11 570 l2 570 -42 0 -43 0 0
-1170 0 -1170 43 0 42 0 -2 570 c-2 482 -1 570 11 570 8 0 41 -30 75 -66 70
-77 138 -207 171 -329 35 -126 36 -128 49 -64 25 117 102 231 177 259 44 17
136 12 171 -9 79 -49 113 -175 113 -417 0 -231 -32 -339 -122 -407 -66 -50
-198 -58 -253 -15 -34 26 -32 48 10 88 19 18 42 52 51 75 39 104 -52 208 -169
192 -104 -14 -161 -122 -127 -245 22 -83 128 -162 258 -192 71 -16 214 -17
282 -1 172 41 306 180 354 367 20 78 21 232 1 308 -51 196 -195 330 -384 358
-69 10 -77 9 -246 -28 -16 -4 -31 12 -73 76 l-52 80 51 78 c29 42 54 79 55 81
2 2 32 -4 68 -13 76 -21 191 -22 264 -2 145 39 258 154 309 313 28 89 32 245
8 338 -68 268 -287 410 -577 375z"/>
<path d="M250 1400 l0 -1170 135 0 135 0 0 1170 0 1170 -135 0 -135 0 0 -1170z"/>
</g>
</svg>
