<svg height="512pt" viewBox="0 0 512 512" width="512pt" xmlns="http://www.w3.org/2000/svg"><path d="m504.296875 256c0 137.242188-111.257813 248.5-248.5 248.5s-248.5-111.257812-248.5-248.5 111.257813-248.5 248.5-248.5 248.5 111.257812 248.5 248.5zm0 0" fill="#c6c5ca"/><path d="m483.796875 256c0 109.351562-88.648437 198-198 198s-198-88.648438-198-198 88.648437-198 198-198 198 88.648438 198 198zm0 0" fill="#898890"/><path d="m453.796875 256c0 109.351562-88.648437 198-198 198s-198-88.648438-198-198 88.648437-198 198-198 198 88.648438 198 198zm0 0" fill="#ff7956"/><path d="m385.296875 256c0 49.429688-40.070313 89.5-89.5 89.5s-89.5-40.070312-89.5-89.5 40.070313-89.5 89.5-89.5 89.5 40.070312 89.5 89.5zm0 0" fill="#ff3f62"/><path d="m345.296875 256c0 49.429688-40.070313 89.5-89.5 89.5s-89.5-40.070312-89.5-89.5 40.070313-89.5 89.5-89.5 89.5 40.070312 89.5 89.5zm0 0" fill="#c6c5ca"/><path d="m332.796875 256c0 25.957031-21.042969 47-47 47s-47-21.042969-47-47 21.042969-47 47-47 47 21.042969 47 47zm0 0" fill="#898890"/><path d="m302.796875 256c0 25.957031-21.042969 47-47 47s-47-21.042969-47-47 21.042969-47 47-47 47 21.042969 47 47zm0 0" fill="#e0e0e2"/><path d="m87.796875 256c0-104.304688 80.652344-189.773438 183-197.441406-4.953125-.371094-9.953125-.558594-15-.558594-109.351563 0-198 88.648438-198 198s88.648437 198 198 198c5.046875 0 10.046875-.1875 15-.558594-102.347656-7.667968-183-93.136718-183-197.441406zm0 0" fill="#ff3f62"/><path d="m192.117188 318.886719c-9.050782 3.925781-18.730469 6.828125-28.953126 8.53125-34.914062 5.21875-68.226562-1.648438-97.625-16.433594-5.035156-17.460937-7.742187-35.90625-7.742187-54.984375 0-26.101562 5.0625-51.023438 14.238281-73.84375 10.183594 22.164062 24.191406 42.285156 43.753906 58.289062 15.148438 11.902344 32.683594 20.582032 51.046876 25.398438 2.253906 20.585938 11.484374 39.070312 25.28125 53.042969zm.792968-126.5625c13.972656-13.800781 32.457032-23.03125 53.046875-25.285157 4.8125-18.363281 13.492188-35.898437 25.394531-51.046874 16.003907-19.558594 36.125-33.570313 58.289063-43.75-22.820313-9.179688-47.742187-14.242188-73.84375-14.242188-19.132813 0-37.628906 2.722656-55.132813 7.785156-14.78125 29.304688-21.898437 62.308594-16.285156 97.582032 1.703125 10.222656 4.605469 19.902343 8.53125 28.957031zm253.144532 8.695312c-29.398438-14.789062-62.714844-21.652343-97.628907-16.4375-10.21875 1.703125-19.898437 4.609375-28.953125 8.53125 13.796875 13.972657 23.03125 32.460938 25.28125 53.046875 18.367188 4.8125 35.898438 13.492188 51.050782 25.398438 19.558593 16.003906 33.570312 36.121094 43.75 58.285156 9.179687-22.820312 14.242187-47.738281 14.242187-73.84375 0-19.078125-2.707031-37.523438-7.742187-54.980469zm-127.371094 118.65625c-13.972656 13.800781-32.460938 23.03125-53.046875 25.285157-4.8125 18.363281-13.492188 35.898437-25.398438 51.046874-16.003906 19.558594-36.121093 33.570313-58.285156 43.75 22.820313 9.179688 47.738281 14.242188 73.84375 14.242188 19.078125 0 37.523437-2.707031 54.980469-7.742188 14.789062-29.398437 21.652344-62.710937 16.4375-97.625-1.703125-10.222656-4.609375-19.902343-8.53125-28.957031zm0 0" fill="#fff"/><path d="m349.53125 184.421875c-.367188.050781-.734375.105469-1.105469.160156-10.21875 1.703125-19.898437 4.609375-28.953125 8.53125 13.796875 13.972657 23.03125 32.460938 25.28125 53.046875 14.128906 3.703125 27.765625 9.695313 40.203125 17.683594.222657-2.585938.339844-5.199219.339844-7.84375 0-29.265625-14.046875-55.246094-35.765625-71.578125zm0 0" fill="#ffbcab"/><path d="m318.683594 319.675781c-11.632813 11.488281-26.398438 19.8125-42.902344 23.578125 6.4375 1.46875 13.132812 2.246094 20.015625 2.246094 10.433594 0 20.453125-1.785156 29.765625-5.070312-1.703125-7.226563-4.023438-14.15625-6.878906-20.753907zm0 0" fill="#ffbcab"/><path d="m37.296875 256c0-132.207031 103.242187-240.300781 233.5-248.054688-4.960937-.296874-9.964844-.445312-15-.445312-137.242187 0-248.5 111.257812-248.5 248.5s111.257813 248.5 248.5 248.5c5.035156 0 10.039063-.148438 15-.445312-130.257813-7.753907-233.5-115.847657-233.5-248.054688zm0 0" fill="#898890"/><path d="m196.296875 256c0-44.316406 32.210937-81.113281 74.5-88.246094-4.878906-.824218-9.890625-1.253906-15-1.253906-49.429687 0-89.5 40.070312-89.5 89.5s40.070313 89.5 89.5 89.5c5.109375 0 10.121094-.429688 15-1.253906-42.289063-7.132813-74.5-43.929688-74.5-88.246094zm0 0" fill="#898890"/><path d="m238.796875 256c0-20.710938 13.398437-38.296875 32-44.554688-4.710937-1.585937-9.757813-2.445312-15-2.445312-25.957031 0-47 21.042969-47 47s21.042969 47 47 47c5.242187 0 10.289063-.859375 15-2.445312-18.601563-6.257813-32-23.84375-32-44.554688zm0 0" fill="#c6c5ca"/><path d="m95.539062 310.980469c-5.035156-17.457031-7.742187-35.902344-7.742187-54.980469 0-13.832031 1.421875-27.328125 4.125-40.359375-7.898437-10.363281-14.441406-21.632813-19.882813-33.484375-9.179687 22.820312-14.242187 47.738281-14.242187 73.84375 0 19.078125 2.707031 37.523438 7.742187 54.980469 27.070313 13.621093 57.464844 20.519531 89.371094 17.449219-20.949218-2.011719-40.929687-8.171876-59.371094-17.449219zm0 0" fill="#ffbcab"/><path d="m192.910156 192.324219c6.992188-6.90625 15.117188-12.671875 24.070313-16.984375-1.050781-3.902344-1.921875-7.894532-2.601563-11.972656-5.613281-35.273438 1.503906-68.277344 16.285156-97.582032 12.886719-3.726562 26.308594-6.183594 40.132813-7.222656-4.953125-.371094-9.953125-.5625-15-.5625-19.132813 0-37.628906 2.722656-55.132813 7.785156-14.78125 29.304688-21.898437 62.308594-16.285156 97.582032 1.703125 10.222656 4.605469 19.902343 8.53125 28.957031zm0 0" fill="#ffbcab"/><path d="m211.953125 439.757812c22.164063-10.179687 42.28125-24.191406 58.285156-43.75 11.90625-15.148437 20.585938-32.683593 25.398438-51.046874 10.285156-1.125 20.042969-3.992188 28.976562-8.300782-1.582031-5.875-3.574219-11.542968-5.929687-16.984375-13.972656 13.800781-32.460938 23.03125-53.046875 25.285157-4.8125 18.363281-13.492188 35.898437-25.398438 51.046874-16.003906 19.558594-36.121093 33.570313-58.285156 43.75 22.820313 9.179688 47.738281 14.242188 73.84375 14.242188 5.046875 0 10.050781-.191406 15.003906-.5625-20.664062-1.550781-40.4375-6.273438-58.847656-13.679688zm0 0" fill="#ffbcab"/><path d="m255.796875 461.5c113.3125 0 205.5-92.1875 205.5-205.5s-92.1875-205.5-205.5-205.5-205.5 92.1875-205.5 205.5 92.1875 205.5 205.5 205.5zm0-396c105.042969 0 190.5 85.457031 190.5 190.5s-85.457031 190.5-190.5 190.5-190.5-85.457031-190.5-190.5 85.457031-190.5 190.5-190.5zm0 0"/><path d="m92.460938 314.007812-4.648438 14.261719c24.328125 7.925781 50.050781 10.511719 76.460938 6.566407l.125-.019532c8.945312-1.492187 17.699218-3.894531 26.089843-7.15625 17.148438 15.640625 39.902344 25.222656 64.855469 25.339844-4.816406 13.761719-11.957031 26.847656-20.957031 38.316406-9.089844 11.097656-20.148438 20.917969-32.867188 29.195313l8.179688 12.574219c14.039062-9.136719 26.265625-20.011719 36.347656-32.328126l.089844-.117187c11.382812-14.488281 20.101562-31.304687 25.386719-48.914063 16.398437-2.6875 31.429687-9.496093 43.984374-19.332031 1.871094 5.664063 3.308594 11.488281 4.300782 17.40625 3.464844 23.273438 1.445312 46.667969-6.003906 69.535157l14.261718 4.644531c8.183594-25.121094 10.394532-50.84375 6.566406-76.457031l-.019531-.125c-1.492187-8.945313-3.894531-17.699219-7.152343-26.09375 15.636718-17.144532 25.21875-39.898438 25.335937-64.851563 13.761719 4.8125 26.847656 11.953125 38.316406 20.957031 11.097657 9.089844 20.917969 20.144532 29.195313 32.867188l12.574218-8.179688c-9.136718-14.039062-20.011718-26.269531-32.328124-36.34375l-.117188-.09375c-14.488281-11.382812-31.308594-20.101562-48.914062-25.386718-2.6875-16.398438-9.5-31.429688-19.332032-43.984376 5.664063-1.867187 11.488282-3.308593 17.40625-4.300781 23.273438-3.464843 46.667969-1.445312 69.535156 6.003907l4.644532-14.261719c-25.121094-8.183594-50.84375-10.394531-76.457032-6.566407l-.125.019532c-8.945312 1.492187-17.699218 3.894531-26.09375 7.15625-17.144531-15.640625-39.898437-25.222656-64.851562-25.339844 4.8125-13.761719 11.953125-26.847656 20.953125-38.316406 9.09375-11.097656 20.148437-20.917969 32.871094-29.195313l-8.179688-12.574219c-14.039062 9.136719-26.265625 20.011719-36.347656 32.328126l-.09375.117187c-11.378906 14.488281-20.097656 31.304687-25.382813 48.914063-16.402343 2.6875-31.429687 9.496093-43.984374 19.332031-1.875-5.679688-3.316407-11.507813-4.300782-17.414063-3.6875-23.183594-1.75-46.539062 5.765625-69.417968l-14.25-4.683594c-8.265625 25.171875-10.398437 50.894531-6.320312 76.511718 1.492187 8.945313 3.890625 17.699219 7.152343 26.089844-15.636718 17.144532-25.222656 39.902344-25.335937 64.855469-13.761719-4.816406-26.847656-11.957031-38.316406-20.957031-11.097657-9.089844-20.917969-20.148438-29.195313-32.867188l-12.574218 8.179688c9.132812 14.039062 20.011718 26.265625 32.328124 36.34375l.117188.09375c14.488281 11.382812 31.308594 20.101562 48.914062 25.386718 2.6875 16.398438 9.496094 31.425782 19.332032 43.980469-5.664063 1.871094-11.488282 3.3125-17.410156 4.300781-23.269532 3.46875-46.664063 1.449219-69.53125-6zm163.335937-140.007812c45.214844 0 82 36.785156 82 82s-36.785156 82-82 82-82-36.785156-82-82 36.785156-82 82-82zm0 0"/><path d="m180.367188 248.496094h15v15h-15zm0 0"/><path d="m316.222656 248.496094h15v15h-15zm0 0"/><path d="m293.21875 304.027344 10.605469-10.605469 10.605469 10.605469-10.605469 10.605468zm0 0"/><path d="m197.15625 207.972656 10.605469-10.609375 10.605469 10.609375-10.605469 10.605469zm0 0"/><path d="m248.296875 180.570312h15v15h-15zm0 0"/><path d="m248.296875 316.421875h15v15h-15zm0 0"/><path d="m197.152344 304.027344 10.609375-10.605469 10.605469 10.605469-10.605469 10.605468zm0 0"/><path d="m293.21875 207.964844 10.605469-10.605469 10.605469 10.605469-10.605469 10.605468zm0 0"/><path d="m255.796875 216.5c7.601563 0 14.984375 2.164062 21.34375 6.257812l8.121094-12.613281c-8.789063-5.65625-18.976563-8.644531-29.464844-8.644531-30.050781 0-54.5 24.449219-54.5 54.5s24.449219 54.5 54.5 54.5 54.5-24.449219 54.5-54.5c0-10.488281-2.988281-20.679688-8.648437-29.464844l-12.609376 8.117188c4.09375 6.363281 6.257813 13.742187 6.257813 21.347656 0 21.78125-17.722656 39.5-39.5 39.5-21.78125 0-39.5-17.71875-39.5-39.5s17.71875-39.5 39.5-39.5zm0 0"/><path d="m255.796875 0c-137.652344 0-250.375 108.660156-255.796875 245.703125l14.988281.59375c5.132813-129.699219 110.910157-231.296875 240.808594-231.296875 132.886719 0 241 108.113281 241 241s-108.113281 241-241 241c-129.898437 0-235.675781-101.597656-240.808594-231.296875l-14.988281.59375c5.417969 136.898437 118.003906 245.703125 255.796875 245.703125 141.492187 0 256-114.496094 256-256 0-141.492188-114.496094-256-256-256zm0 0"/><g fill="#fff"><path d="m419.136719 419.34375-10.605469-10.609375c40.796875-40.796875 63.265625-95.039063 63.265625-152.734375 0-41.007812-11.449219-80.796875-33.109375-115.070312l12.679688-8.015626c23.179687 36.675782 35.429687 79.238282 35.429687 123.085938 0 61.703125-24.027344 119.710938-67.660156 163.34375zm14.207031-286.464844c-2.746094-3.945312-5.667969-7.851562-8.683594-11.613281l11.707032-9.378906c3.222656 4.019531 6.347656 8.199219 9.285156 12.417969zm-14.894531-19.023437c-3.167969-3.613281-6.503907-7.175781-9.917969-10.589844l10.605469-10.609375c3.644531 3.648438 7.210937 7.453125 10.59375 11.3125zm0 0"/><path d="m255.796875 285.488281c-7.886719 0-15.296875-3.0625-20.859375-8.628906l10.605469-10.605469c3.015625 3.015625 7.160156 4.539063 11.46875 4.1875l1.230469 14.949219c-.8125.066406-1.636719.097656-2.445313.097656zm15.117187-4.152343-7.6875-12.882813c1.019532-.609375 1.972657-1.347656 2.824219-2.199219 1.503907-1.507812 2.632813-3.273437 3.355469-5.257812l14.09375 5.136718c-1.476562 4.054688-3.78125 7.664063-6.84375 10.726563-1.726562 1.726563-3.660156 3.230469-5.742188 4.476563zm-.703124-26.839844c-.347657-3.347656-1.785157-6.375-4.160157-8.75l10.605469-10.605469c4.769531 4.769531 7.78125 11.097656 8.472656 17.816406zm0 0"/><path d="m349.96875 409.929688-7.851562-12.78125c15.261718-9.371094 28.855468-21.089844 40.402343-34.828126l11.484375 9.648438c-12.585937 14.976562-27.402344 27.75-44.035156 37.960938zm50.511719-46.136719-12.019531-8.972657c2.851562-3.820312 5.570312-7.8125 8.082031-11.855468l12.746093 7.902344c-2.734374 4.414062-5.699218 8.761718-8.808593 12.925781zm14.050781-21.945313-13.183594-7.15625c2.273438-4.1875 4.390625-8.527344 6.289063-12.890625l13.757812 5.984375c-2.074219 4.761719-4.382812 9.492188-6.863281 14.0625zm0 0"/></g></svg>