<?xml version="1.0" encoding="iso-8859-1"?>
<!-- Generator: Adobe Illustrator 19.0.0, SVG Export Plug-In . SVG Version: 6.00 Build 0)  -->
<svg version="1.1" id="Capa_1" xmlns="http://www.w3.org/2000/svg" xmlns:xlink="http://www.w3.org/1999/xlink" x="0px" y="0px"
	 viewBox="0 0 512 512" style="enable-background:new 0 0 512 512;" xml:space="preserve">
<path style="fill:#C6C5CA;" d="M256,8.153L65.374,99.883v139.792c0,117.278,75.124,222.25,188.508,263.403l2.118,0.769l2.119-0.769
	c113.384-41.154,188.508-146.125,188.508-263.403V99.883L256,8.153z"/>
<g>
	<path style="fill:#898890;" d="M276.945,53.789l-150.639,74.84v112.265c0,96.759,60.032,183.364,150.639,217.318l0,0l0,0
		c90.606-33.953,150.639-120.559,150.639-217.318V128.629L276.945,53.789z"/>
	<path style="fill:#898890;" d="M123.653,239.675V99.883L285.14,22.175L256,8.153L65.374,99.883v139.792
		c0,117.278,75.124,222.25,188.508,263.403l2.118,0.769l2.119-0.769c9.271-3.365,18.282-7.165,27.022-11.356
		C186.999,444.667,123.653,347.362,123.653,239.675z"/>
</g>
<path style="fill:#FF7956;" d="M256,53.789l-150.639,74.84v112.265c0,96.759,60.032,183.364,150.639,217.318l0,0l0,0
	c90.606-33.953,150.639-120.559,150.639-217.318V128.629L256,53.789z"/>
<g>
	<polygon style="fill:#FF3F62;" points="380.82,205.059 298.439,221.846 315.225,139.463 245.377,139.463 262.163,221.845 
		179.782,205.059 179.782,274.907 262.164,258.121 245.377,340.502 315.225,340.502 298.438,258.12 380.82,274.907 	"/>
	<path style="fill:#FF3F62;" d="M175.257,240.893V128.629l115.691-57.477L256,53.79l-150.639,74.84v112.265
		c0,96.759,60.032,183.364,150.639,217.318l0,0l0,0c12.233-4.584,23.902-10.135,34.947-16.534
		C220.179,400.68,175.257,324.589,175.257,240.893z"/>
</g>
<polygon style="fill:#FFFFFF;" points="356.516,205.059 274.135,221.846 290.921,139.463 221.074,139.463 237.86,221.845 
	155.478,205.059 155.478,274.907 237.861,258.121 221.074,340.502 290.921,340.502 274.133,258.12 356.516,274.907 "/>
<g>
	<polygon style="fill:#D8D7DA;" points="262.163,221.845 245.377,139.463 221.074,139.463 236.806,216.678 	"/>
	<polygon style="fill:#D8D7DA;" points="298.439,221.846 356.516,210.011 356.516,205.059 299.491,216.679 	"/>
	<polygon style="fill:#D8D7DA;" points="179.782,210.011 155.478,205.059 155.478,274.907 179.782,269.955 	"/>
	<polygon style="fill:#D8D7DA;" points="236.807,263.287 221.074,340.502 245.377,340.502 262.164,258.121 	"/>
	<polygon style="fill:#D8D7DA;" points="298.438,258.12 299.49,263.287 356.516,274.907 356.516,269.955 	"/>
</g>
<g>
	
		<rect x="313.172" y="29.268" transform="matrix(0.4414 -0.8973 0.8973 0.4414 123.1169 322.6113)" style="fill:#FFFFFF;" width="15.003" height="66.305"/>
	
		<rect x="381.056" y="88.322" transform="matrix(-0.8973 -0.4414 0.4414 -0.8973 694.9161 353.3185)" style="fill:#FFFFFF;" width="15.003" height="15.003"/>
	
		<rect x="358.627" y="77.293" transform="matrix(-0.8973 -0.4414 0.4414 -0.8973 657.2303 322.4921)" style="fill:#FFFFFF;" width="15.003" height="15.003"/>
	<path style="fill:#FFFFFF;" d="M334.47,351.909c-14.602,21.065-32.826,38.738-54.169,52.528l8.143,12.602
		c22.999-14.859,42.632-33.896,58.358-56.584c0.49-0.708,0.976-1.417,1.457-2.13l-12.432-8.399
		C335.379,350.588,334.926,351.25,334.47,351.909z"/>
	<path style="fill:#FFFFFF;" d="M341.022,341.811l12.828,7.78c2.682-4.421,5.228-8.993,7.569-13.589l-13.369-6.81
		C345.878,333.46,343.513,337.706,341.022,341.811z"/>
	<path style="fill:#FFFFFF;" d="M352.208,320.507l13.69,6.139c2.115-4.714,4.077-9.568,5.832-14.427l-14.11-5.098
		C355.99,311.629,354.169,316.133,352.208,320.507z"/>
</g>
<g>
	<path style="fill:#1D1D1F;" d="M256,0L57.871,95.34v144.508c0,59.118,18.374,116.041,53.137,164.615
		c34.731,48.531,83.251,85.129,140.315,105.84L256,512l4.677-1.697c57.064-20.712,105.583-57.311,140.315-105.84
		c34.762-48.574,53.137-105.496,53.137-164.615V95.34L256,0z M439.126,239.848c0,110.719-70.231,211.47-175.623,253.321v-14.78
		h-15.004v14.78C143.106,451.316,72.875,350.566,72.875,239.848V104.771l175.623-84.51v13.696h15.004V20.26l175.623,84.51v135.077
		H439.126z"/>
	<path style="fill:#1D1D1F;" d="M136.573,380.061l-12.406,8.437c21.018,30.908,47.823,56.572,79.668,76.274l7.895-12.759
		C181.687,433.425,156.4,409.217,136.573,380.061z"/>
	<path style="fill:#1D1D1F;" d="M97.86,124.152v116.914c0,49.01,14.758,96.206,42.678,136.485
		c27.921,40.28,66.936,70.66,112.83,87.857l2.633,0.986l2.633-0.986c45.893-17.198,84.909-47.578,112.83-87.857
		c27.921-40.28,42.678-87.475,42.678-136.485V124.152L256,45.585L97.86,124.152z M399.137,241.066
		c0,92.172-57.399,175.914-143.137,209.287c-85.738-33.373-143.137-117.115-143.137-209.287V133.45L256,62.337l143.137,71.113
		V241.066z"/>
	<path style="fill:#1D1D1F;" d="M211.888,132.135l16.356,80.268l-80.268-16.356v88.217l80.269-16.357l-16.357,80.268h88.218
		l-16.357-80.269l80.269,16.357v-88.216l-80.268,16.357l16.357-80.269H211.888z M349.014,214.417v51.478l-84.496-17.218
		l17.218,84.496h-51.478l17.217-84.495l-84.495,17.217v-51.479l84.494,17.217l-17.217-84.494h51.479l-17.217,84.495L349.014,214.417
		z"/>
	<rect x="248.5" y="73.966" style="fill:#1D1D1F;" width="15.004" height="45.666"/>
	<rect x="248.5" y="360.677" style="fill:#1D1D1F;" width="15.004" height="77.699"/>
	
		<rect x="125.862" y="122.387" transform="matrix(-0.8956 0.4449 -0.4449 -0.8956 378.2987 170.9915)" style="fill:#1D1D1F;" width="86.442" height="15.004"/>
</g>
<g>
</g>
<g>
</g>
<g>
</g>
<g>
</g>
<g>
</g>
<g>
</g>
<g>
</g>
<g>
</g>
<g>
</g>
<g>
</g>
<g>
</g>
<g>
</g>
<g>
</g>
<g>
</g>
<g>
</g>
</svg>
